<svg xmlns="http://www.w3.org/2000/svg" viewBox="0 0 264.2 60.91"><defs><style>.cls-1{fill:#003bb3;}.cls-2{fill:#fff;}</style></defs><g id="Layer_2" data-name="Layer 2"><g id="Layer_1-2" data-name="Layer 1"><path class="cls-1" d="M96.46,8.39l-.16,3.54H84.17V52.19H79.8V12H67.41V8.39Z"/><path class="cls-1" d="M85.65,53.67H78.32V13.43H65.93V6.92H98l-.28,6.49H85.65Zm-4.37-3h1.41V10.45h12.2l0-.58h-26v.61H81.28Z"/><path class="cls-1" d="M139,52.37h-4.18V8.71h4.31q12,18.2,24.16,36.5l.25-.07V8.71h4.28V52.37h-4.28q-12.07-18.3-24.25-36.71l-.29.07Z"/><path class="cls-1" d="M169.27,53.84h-6.55L140.45,20.13V53.84h-7.14V7.23h6.58L162,40.69V7.23h7.24Zm-5-3h2V10.19H165V46.25l-2.36.69L138.3,10.19h-2v40.7h1.23V14.59l2.43-.63Z"/><path class="cls-1" d="M234.2,36.82c-.73,5,3.27,10.48,8.63,12s12.5.16,14.94-7.1h4.39a13.33,13.33,0,0,1-4.1,7c-3.63,3.31-8,4.35-12.81,4.08a16.71,16.71,0,0,1-7.35-2.07,15.12,15.12,0,0,1-7.27-9.07A20.94,20.94,0,0,1,230.88,28c2.18-5.94,6.59-9.29,12.82-10.2a17.05,17.05,0,0,1,12.66,2.72,14.72,14.72,0,0,1,6.28,11.17c.16,1.65,0,3.32,0,5.11Zm24.24-3.49c0-4.39-1.44-7.91-5.17-10.23a13.38,13.38,0,0,0-14.16.29c-3.38,2.42-4.83,5.82-5.07,9.94Z"/><path class="cls-1" d="M246.66,54.33c-.49,0-1,0-1.49,0a18.4,18.4,0,0,1-8-2.25,16.62,16.62,0,0,1-8-9.93,22.32,22.32,0,0,1,.28-14.6c2.3-6.3,7.14-10.16,14-11.15a18.47,18.47,0,0,1,13.73,3,16.22,16.22,0,0,1,6.91,12.24,31.15,31.15,0,0,1,.05,3.61c0,.53,0,1.09,0,1.64V38.3H235.6c.15,3.87,3.44,7.9,7.62,9.06,4.88,1.36,11.08,0,13.15-6.14l.34-1H264L263.6,42a14.92,14.92,0,0,1-4.55,7.8A17.57,17.57,0,0,1,246.66,54.33Zm.17-35.26a19.82,19.82,0,0,0-2.92.22c-5.78.83-9.7,3.94-11.64,9.24a19.38,19.38,0,0,0-.22,12.7,13.71,13.71,0,0,0,6.57,8.22,15.4,15.4,0,0,0,6.71,1.89c4.87.27,8.71-.94,11.73-3.7a11.75,11.75,0,0,0,3.11-4.47h-1.38a11.92,11.92,0,0,1-6.93,6.72,15.59,15.59,0,0,1-9.43.32c-6.09-1.69-10.53-7.92-9.69-13.6l.18-1.26h28.29c0-.08,0-.16,0-.24a26.92,26.92,0,0,0-.05-3.26,13.33,13.33,0,0,0-5.66-10.1A14.64,14.64,0,0,0,246.83,19.07Zm13.1,15.74H232.47l.09-1.57c.29-4.9,2.16-8.52,5.69-11a15,15,0,0,1,15.81-.35c3.92,2.45,5.84,6.2,5.86,11.48Zm-24.25-3H256.9a9.17,9.17,0,0,0-4.41-7.5,11.86,11.86,0,0,0-12.52.24A10.29,10.29,0,0,0,235.68,31.85Z"/><path class="cls-1" d="M96,35.28c0-5.07,1.42-9.59,5.18-13.17a16.29,16.29,0,0,1,10.8-4.46c6.08-.27,11.3,1.61,15,6.64a16.91,16.91,0,0,1,3.19,9.12,19.11,19.11,0,0,1-2.12,11,16.13,16.13,0,0,1-12.62,8.3,17.67,17.67,0,0,1-9.62-1.24c-6-2.64-9-7.48-9.76-13.84C96,37.06,96,36.5,96,35.94,95.94,35.72,96,35.5,96,35.28ZM125.88,35c0-.3-.06-.81-.09-1.33-.41-6.85-4.57-11.46-11.36-12.3a12.15,12.15,0,0,0-13,7.34,17.35,17.35,0,0,0-.67,11c1.16,4.61,4,7.77,8.66,9,4.84,1.23,9.25.26,12.83-3.37C125,42.55,125.82,39,125.88,35Z"/><path class="cls-1" d="M112.74,54.35a18.66,18.66,0,0,1-7.53-1.55c-6.2-2.71-9.77-7.76-10.64-15,0-.46-.07-.91-.08-1.35,0-.14,0-.28,0-.42a4.85,4.85,0,0,1,0-.54v-.19c0-6,1.84-10.62,5.64-14.24a17.7,17.7,0,0,1,11.75-4.86c7-.32,12.49,2.11,16.3,7.23a18.3,18.3,0,0,1,3.47,9.9,20.53,20.53,0,0,1-2.3,11.8,17.62,17.62,0,0,1-13.72,9A21.61,21.61,0,0,1,112.74,54.35Zm.36-35.24c-.37,0-.73,0-1.1,0a14.82,14.82,0,0,0-9.85,4.05c-3.18,3-4.73,7-4.73,12.09h0v.6c0,.15,0,.3,0,.45,0,.39,0,.76.07,1.11.74,6.22,3.65,10.36,8.88,12.65a16.26,16.26,0,0,0,8.83,1.13c5.3-.71,9.08-3.19,11.53-7.56a17.39,17.39,0,0,0,1.93-10.15,15.23,15.23,0,0,0-2.9-8.33C122.75,21.1,118.6,19.11,113.1,19.11Zm.16,31.58a16.84,16.84,0,0,1-4.2-.55c-5-1.29-8.39-4.76-9.72-10a18.84,18.84,0,0,1,.73-11.94,13.61,13.61,0,0,1,14.54-8.25c7.47.93,12.2,6.05,12.65,13.68,0,.37,0,.75.07,1l0,.35V35c0,3.16-.52,7.76-4,11.35A13.79,13.79,0,0,1,113.26,50.69Zm-.42-27.93a10.57,10.57,0,0,0-10,6.52,16,16,0,0,0-.61,10.1c1.07,4.22,3.62,6.88,7.6,7.89a11.16,11.16,0,0,0,11.41-3c2.13-2.17,3.12-5,3.19-9.24l0-.22c0-.3,0-.69-.07-1.07-.36-6.19-4-10.17-10.07-10.93A12.7,12.7,0,0,0,112.84,22.76Z"/><path class="cls-1" d="M173.33,35.28c0-5.07,1.42-9.59,5.19-13.17a16.27,16.27,0,0,1,10.79-4.46c6.09-.27,11.3,1.61,15,6.64a16.83,16.83,0,0,1,3.19,9.12,19.19,19.19,0,0,1-2.11,11c-2.77,4.92-7.08,7.55-12.63,8.3a17.68,17.68,0,0,1-9.62-1.24c-6-2.64-9-7.48-9.75-13.84-.07-.55-.07-1.11-.1-1.67C173.32,35.72,173.33,35.5,173.33,35.28ZM203.26,35c0-.3-.06-.81-.09-1.33-.4-6.85-4.57-11.46-11.36-12.3a12.14,12.14,0,0,0-13,7.34,17.28,17.28,0,0,0-.67,11c1.16,4.61,4,7.77,8.65,9,4.85,1.23,9.25.26,12.83-3.37C202.39,42.55,203.21,39,203.26,35Z"/><path class="cls-1" d="M190.12,54.35a18.66,18.66,0,0,1-7.53-1.55c-6.19-2.71-9.77-7.76-10.63-15-.06-.46-.07-.91-.09-1.35,0-.14,0-.28,0-.42s0-.38,0-.54v-.19c0-6,1.84-10.62,5.65-14.24a17.68,17.68,0,0,1,11.75-4.86c7-.32,12.49,2.11,16.29,7.23a18.39,18.39,0,0,1,3.48,9.9,20.61,20.61,0,0,1-2.3,11.8,17.63,17.63,0,0,1-13.72,9A21.87,21.87,0,0,1,190.12,54.35Zm.36-35.24c-.36,0-.73,0-1.1,0a14.8,14.8,0,0,0-9.84,4.05c-3.19,3-4.73,7-4.73,12.09h0v.22c0,.13,0,.25,0,.38s0,.3,0,.45c0,.39,0,.76.06,1.1.75,6.23,3.65,10.37,8.89,12.66a16.21,16.21,0,0,0,8.82,1.13c5.31-.71,9.08-3.19,11.54-7.56a17.49,17.49,0,0,0,1.93-10.15,15.23,15.23,0,0,0-2.9-8.33C200.14,21.1,196,19.11,190.48,19.11Zm.16,31.58a16.82,16.82,0,0,1-4.19-.55c-5-1.29-8.4-4.76-9.73-10a18.84,18.84,0,0,1,.74-11.94A13.6,13.6,0,0,1,192,19.91c7.47.93,12.2,6.05,12.65,13.68,0,.36,0,.73.07,1l0,.37V35c0,3.16-.51,7.76-4,11.35A13.81,13.81,0,0,1,190.64,50.69Zm-.42-27.93a10.55,10.55,0,0,0-10,6.52,15.86,15.86,0,0,0-.61,10.1c1.06,4.22,3.62,6.88,7.59,7.89a11.16,11.16,0,0,0,11.41-3c2.14-2.17,3.12-5,3.19-9.25v-.24c0-.29-.05-.67-.07-1-.37-6.19-4-10.17-10.07-10.93A13,13,0,0,0,190.22,22.76Z"/><path class="cls-1" d="M213.13,21.69h-4.74V18.15h4.72V9.61h4.25v8.53h9.48v3.52h-9.33c0,.63-.09,1.11-.09,1.58,0,6.42,0,12.84,0,19.25a16.84,16.84,0,0,0,.29,3.09,3.37,3.37,0,0,0,3.08,2.93c1.43.18,2.89.17,4.34.23.54,0,1.09,0,1.7,0v3.4a5.38,5.38,0,0,1-.87.13c-1.67,0-3.35,0-5,0-4.92-.2-7.71-3-7.77-7.9-.09-7,0-13.94-.05-20.92Z"/><path class="cls-1" d="M223.4,53.77c-.83,0-1.67,0-2.51,0-5.77-.23-9.12-3.64-9.19-9.36-.06-4.9-.06-9.88,0-14.7,0-2.08,0-4.16,0-6.24v-.26h-4.75v-6.5h4.72V8.13h7.21v8.53h9.48v6.48H218.9v2.4c0,5.56,0,11.3,0,17a16.53,16.53,0,0,0,.27,2.82A1.91,1.91,0,0,0,221,47c1,.13,2,.15,3,.19l1.18,0c.33,0,.68,0,1.06,0h2.06V53.4l-1.24.21-.23,0a4.11,4.11,0,0,1-.87.11H223.4ZM209.87,20.21h4.74v9.47c0,4.8,0,9.77,0,14.66.05,4.1,2.18,6.27,6.35,6.43,1.26,0,2.56,0,3.81,0h.55v-.57h-.29l-1.15,0a31.65,31.65,0,0,1-3.32-.21,4.83,4.83,0,0,1-4.35-4.12A18.64,18.64,0,0,1,216,42.5c0-5.65,0-11.4,0-17v-2.3c0-.37,0-.73.06-1.11,0-.17,0-.36,0-.56l.09-1.38h9.23v-.57h-9.48V11.08h-1.3v8.55h-4.71Z"/><path class="cls-1" d="M60.77,33.72a5.46,5.46,0,0,0-.57,4.4,4.68,4.68,0,0,1-.07,3,5.21,5.21,0,0,1-2,2.4,4.78,4.78,0,0,0-2.28,4A4.87,4.87,0,0,1,52,52,4.94,4.94,0,0,0,48.52,55a5.29,5.29,0,0,1-2.19,2.42,5.42,5.42,0,0,1-3.24.59,4.11,4.11,0,0,0-3.57,1.13,5.56,5.56,0,0,1-4,1.81,6.31,6.31,0,0,1-1.68-.24,11.06,11.06,0,0,0-5.9,0,6.31,6.31,0,0,1-1.47.19,5.48,5.48,0,0,1-4-1.77A3.87,3.87,0,0,0,19,58a5.83,5.83,0,0,1-3.41-.6,5.36,5.36,0,0,1-2.28-2.5A5,5,0,0,0,9.89,52a5,5,0,0,1-2.7-1.68,5.63,5.63,0,0,1-1.14-3.09A4.35,4.35,0,0,0,4.14,43.8a5.69,5.69,0,0,1-2.22-2.72,5.88,5.88,0,0,1-.1-3.54A4.39,4.39,0,0,0,1,33.6,4.45,4.45,0,0,1,.36,29a15.7,15.7,0,0,0,1.31-7.21,4.72,4.72,0,0,1,2.21-4.32,4.87,4.87,0,0,0,2.2-3.89A5.11,5.11,0,0,1,7.2,10.65,5.1,5.1,0,0,1,9.9,9a4.9,4.9,0,0,0,3.51-2.9A4.87,4.87,0,0,1,18.5,3c1.94.16,3.11-.2,4.17-1.31A5.32,5.32,0,0,1,25.52.09,5.25,5.25,0,0,1,28.76.6a5.06,5.06,0,0,0,4.43,0,4.87,4.87,0,0,1,6.13,1.18,4.12,4.12,0,0,0,3.51,1.31,5.89,5.89,0,0,1,3.59.68,5.81,5.81,0,0,1,2.35,2.79,3.9,3.9,0,0,0,2.79,2.31,5.8,5.8,0,0,1,3.13,1.81A5.37,5.37,0,0,1,55.92,14a5.13,5.13,0,0,0,1.9,3.38,17.35,17.35,0,0,1,2,2.46l.39.54a2.27,2.27,0,0,1,.2,2,5.56,5.56,0,0,0,.43,5A6,6,0,0,1,60.77,33.72Z"/><path class="cls-1" d="M60.82,27.39a5.56,5.56,0,0,1-.43-5,2.27,2.27,0,0,0-.2-2l-.39-.54a17.35,17.35,0,0,0-2-2.46A5.13,5.13,0,0,1,55.92,14a5.37,5.37,0,0,0-1.23-3.31,5.8,5.8,0,0,0-3.13-1.81,3.9,3.9,0,0,1-2.79-2.31,5.81,5.81,0,0,0-2.35-2.79,5.89,5.89,0,0,0-3.59-.68,4.12,4.12,0,0,1-3.51-1.31A4.87,4.87,0,0,0,33.19.6a5.06,5.06,0,0,1-4.43,0A5.25,5.25,0,0,0,25.52.09a5.32,5.32,0,0,0-2.85,1.64C21.61,2.84,20.44,3.2,18.5,3a4.87,4.87,0,0,0-5.09,3.09A4.9,4.9,0,0,1,9.9,9a5.1,5.1,0,0,0-2.7,1.62,5.11,5.11,0,0,0-1.12,2.93,4.87,4.87,0,0,1-2.2,3.89,4.72,4.72,0,0,0-2.21,4.32A15.7,15.7,0,0,1,.36,29,4.45,4.45,0,0,0,1,33.6a4.39,4.39,0,0,1,.79,3.94,5.88,5.88,0,0,0,.1,3.54A5.69,5.69,0,0,0,4.14,43.8a4.35,4.35,0,0,1,1.91,3.45,5.63,5.63,0,0,0,1.14,3.09A5,5,0,0,0,9.89,52a5,5,0,0,1,3.46,2.85,5.36,5.36,0,0,0,2.28,2.5A5.83,5.83,0,0,0,19,58a3.87,3.87,0,0,1,3.44,1.17,5.48,5.48,0,0,0,4,1.77,6.31,6.31,0,0,0,1.47-.19,11.06,11.06,0,0,1,5.9,0,6.31,6.31,0,0,0,1.68.24,5.56,5.56,0,0,0,4-1.81A4.11,4.11,0,0,1,43.09,58a5.42,5.42,0,0,0,3.24-.59A5.29,5.29,0,0,0,48.52,55,4.94,4.94,0,0,1,52,52a4.87,4.87,0,0,0,3.83-4.49,4.78,4.78,0,0,1,2.28-4,5.21,5.21,0,0,0,2-2.4,4.68,4.68,0,0,0,.07-3,5.46,5.46,0,0,1,.57-4.4A6,6,0,0,0,60.82,27.39Zm-.92,5.85a6.43,6.43,0,0,0-.65,5.17,3.65,3.65,0,0,1-1.68,4.31,5.79,5.79,0,0,0-2.7,4.77,3.92,3.92,0,0,1-3.08,3.59,5.85,5.85,0,0,0-4.16,3.45A4.09,4.09,0,0,1,43.19,57a5.08,5.08,0,0,0-4.38,1.42,4.48,4.48,0,0,1-4.73,1.31,11.28,11.28,0,0,0-3-.41,13.77,13.77,0,0,0-3.4.45,4.7,4.7,0,0,1-1.22.16,4.42,4.42,0,0,1-3.25-1.46A4.88,4.88,0,0,0,18.94,57a4.33,4.33,0,0,1-4.7-2.54,5.92,5.92,0,0,0-4.1-3.39A4,4,0,0,1,7,47.17,5.29,5.29,0,0,0,4.7,43a4.45,4.45,0,0,1-1.92-5.21,5.36,5.36,0,0,0-1-4.78,3.55,3.55,0,0,1-.55-3.63,16.5,16.5,0,0,0,1.39-7.65,3.76,3.76,0,0,1,1.78-3.43,5.85,5.85,0,0,0,2.63-4.63A3.8,3.8,0,0,1,10.15,10a5.84,5.84,0,0,0,4.16-3.46A3.93,3.93,0,0,1,18.39,4h0a5.54,5.54,0,0,0,5-1.61,4,4,0,0,1,4.95-.92,5.94,5.94,0,0,0,5.25,0,3.92,3.92,0,0,1,5,1,5.07,5.07,0,0,0,4.31,1.61A4.43,4.43,0,0,1,47.86,7a4.85,4.85,0,0,0,3.47,2.87,4.28,4.28,0,0,1,3.6,4.22,6,6,0,0,0,2.2,4A17.35,17.35,0,0,1,59,20.41l.38.54A1.22,1.22,0,0,1,59.46,22,6.5,6.5,0,0,0,60,27.89,5,5,0,0,1,59.9,33.24Z"/><path class="cls-2" d="M22.05,33.83l1.31-1.24,2.89,3,8.81-12.32,1.52,1.1-10,14Z"/><path class="cls-2" d="M30.82,52.54h-.49l0-2.16h1.37l.07,2.16h-1Zm-.12-.36h.72l-.05-1.43h-.65Zm-1.95.27-.18,0-1.1-.14-.18,0,.33-2.14.18,0,1,.13.18,0Zm-1-.5c.23,0,.47.07.71.09l.15-1.42-.65-.08Zm5.67.45-.27-2.15.19,0,1-.15.18,0,.38,2.13-.18,0c-.36.06-.73.12-1.09.16Zm.14-1.83L33.7,52l.71-.11-.24-1.41ZM25.73,52l-.18,0c-.35-.09-.71-.19-1.06-.3l-.18,0,.62-2.07.18,0,1,.27.18,0Zm-1-.64.69.2.35-1.39L25.18,50Zm11.62.52-.57-2.09.18,0,1-.29.18-.06.67,2.06-.17.06c-.35.11-.71.22-1.07.31ZM36.27,50l.38,1.38.69-.21-.45-1.35ZM22.81,51,22.64,51l-1-.44-.17-.08.91-2,.16.07c.31.15.62.28.92.4l.17.07ZM22,50.27l.66.29.53-1.33L22.55,49Zm17.33.58-.85-2,.17-.07.9-.41.17-.08.95,1.94-.16.08c-.33.16-.67.32-1,.46Zm-.37-1.79.57,1.31.65-.3-.63-1.28Zm-18.86.66-.16-.09c-.32-.18-.63-.38-.94-.58l-.16-.1L20,47.14l.16.1.85.52.16.09Zm-.75-.88.62.38L20.63,48l-.56-.34ZM42,49.48l-1.12-1.85.16-.1.84-.53.15-.11,1.21,1.79-.15.11-.93.59Zm-.61-1.73L42.14,49q.3-.18.6-.39l-.8-1.18ZM17.5,48l-.15-.12c-.29-.22-.57-.46-.85-.7l-.14-.12,1.41-1.64.14.12c.25.22.51.43.77.64l.15.11Zm-.62-1c.18.16.37.31.56.46l.87-1.13-.5-.41Zm27.64.68-1.36-1.68L43.3,46c.26-.21.51-.43.76-.65l.13-.13,1.45,1.61-.13.12q-.42.38-.84.72Zm-.85-1.63.91,1.11.54-.47-.95-1.06C44,45.83,43.84,46,43.67,46.11ZM15.21,46l-.13-.13c-.26-.26-.51-.54-.75-.81l-.12-.14,1.62-1.43.12.14c.22.25.45.5.68.74l.13.13Zm-.48-1,.48.53,1-1L15.8,44Zm32,.71-1.58-1.48.12-.13q.34-.36.66-.75l.12-.14,1.66,1.39-.12.14c-.24.29-.49.56-.73.83Zm-1.07-1.5,1,1,.48-.54-1.1-.92C46,43.85,45.85,44,45.7,44.17Zm-32.48-.48-.11-.14c-.22-.3-.43-.61-.63-.91l-.1-.16,1.8-1.18.11.15c.17.27.36.55.56.82l.11.15Zm-.33-1.1c.13.2.27.4.41.59l1.15-.84-.37-.54Zm35.82.71-1.77-1.24.1-.15c.19-.27.38-.55.55-.83l.1-.15,1.83,1.14-.09.16c-.2.31-.4.62-.61.92ZM47.45,42l1.17.82c.14-.2.27-.4.4-.6l-1.21-.76Zm-35.88-.85L11.48,41c-.17-.32-.34-.65-.5-1l-.08-.16,2-.93.08.17c.14.29.29.59.45.89l.08.16ZM11.39,40l.33.64L13,40l-.3-.58Zm38.91.71-1.92-1,.08-.16c.15-.3.29-.6.43-.9l.07-.17,2,.88-.08.17c-.14.33-.3.67-.47,1Zm-1.43-1.14,1.27.65c.11-.22.21-.44.31-.65L49.15,39C49.06,39.16,49,39.36,48.87,39.55ZM10.29,38.34l-.06-.17q-.2-.53-.36-1.05l0-.17,2.06-.64.06.17c.1.32.2.64.32,1l.06.17Zm0-1.15c.07.23.15.46.23.68l1.34-.49-.21-.61Zm41.24.69-2.05-.7.06-.17c.11-.31.21-.63.3-.95l.05-.18,2.08.6-.05.17c-.1.36-.21.71-.33,1.06ZM49.94,37l1.35.47c.07-.23.15-.46.21-.69l-1.37-.39C50.07,36.54,50,36.75,49.94,37ZM9.42,35.41l0-.18c-.08-.35-.15-.72-.21-1.08l0-.18,2.14-.35,0,.18c0,.33.11.66.18,1l0,.18Zm.15-1.14c0,.24.08.47.13.71l1.4-.3c0-.21-.09-.43-.12-.64Zm42.76.66-2.13-.4,0-.18c.06-.32.11-.65.16-1l0-.18,2.15.3,0,.18c0,.36-.11.73-.18,1.09Zm-1.7-.69,1.4.26c0-.23.09-.47.12-.71l-1.41-.19C50.71,33.81,50.67,34,50.63,34.24ZM9,32.39v-.18c0-.37,0-.74,0-1.11v-.18l2.16-.05v.19c0,.33,0,.66,0,1v.19Zm.31-1.11,0,.72,1.43-.1c0-.22,0-.44,0-.65Zm43.44.62-2.16-.11v-.18c0-.33,0-.66,0-1v-.3h2.16v.31c0,.37,0,.75,0,1.11Zm-1.77-.45,1.42.07c0-.28,0-.57,0-.85H51C51,30.93,51,31.19,50.94,31.45Zm-39.86-2-2.15-.14v-.19c0-.36.06-.73.1-1.1l0-.18,2.15.25,0,.18c0,.33-.07.67-.09,1ZM9.32,29l1.42.1.06-.65-1.42-.16Zm41.2-.07,0-.18c0-.33-.07-.67-.12-1l0-.19,2.14-.31,0,.18c.06.37.1.74.13,1.1l0,.19Zm.25-1.05c0,.22.06.43.08.65l1.42-.14c0-.23-.05-.47-.09-.71ZM11.43,26.75,9.31,26.3l0-.18c.08-.35.16-.72.25-1.07l.05-.18,2.09.55,0,.17c-.09.32-.16.65-.23,1ZM9.75,26l1.4.29c0-.21.09-.42.14-.63l-1.38-.36C9.85,25.55,9.8,25.79,9.75,26Zm40.34.18,0-.18c-.07-.32-.16-.65-.25-1l-.06-.17,2.08-.61,0,.18c.11.36.2.72.29,1.07l0,.18Zm.11-1.07c.06.21.11.42.17.62l1.38-.33q-.07-.34-.18-.69Zm-38.05-1-2-.74.06-.17c.13-.34.26-.69.4-1l.08-.17,2,.83-.07.17c-.13.31-.25.62-.36.94Zm-1.56-1,1.34.49.24-.61-1.32-.55C10.76,22.68,10.67,22.91,10.59,23.13Zm38.7.43-.06-.17c-.12-.31-.25-.62-.39-.92l-.08-.16,2-.9.08.17c.15.34.3.68.43,1l.07.17Zm0-1.07c.09.2.17.39.25.59l1.33-.52c-.09-.22-.18-.44-.28-.66Zm-36-.93-1.91-1,.09-.16c.17-.33.36-.65.54-1l.1-.16,1.85,1.1-.09.16c-.17.29-.33.58-.49.87Zm-1.41-1.17,1.26.67.32-.57-1.23-.73Zm36.3.67L48,20.9c-.16-.28-.33-.57-.51-.85l-.1-.16,1.83-1.15.1.15c.2.31.39.63.57.95L50,20Zm-.19-1c.11.18.23.37.33.55l1.25-.7-.37-.61ZM14.68,19.2l-1.76-1.27.11-.15c.22-.29.44-.59.67-.88l.12-.14,1.69,1.35-.12.15c-.21.25-.41.52-.6.79Zm-1.24-1.35,1.16.84c.12-.18.26-.35.39-.52l-1.11-.89Zm33.2.9-.11-.14c-.2-.26-.42-.53-.63-.78l-.12-.14,1.65-1.4.12.14c.24.28.47.57.69.86l.11.15Zm-.34-1,.4.51,1.14-.87-.45-.56Zm-29.88-.66-1.56-1.5.13-.13c.26-.27.52-.53.79-.78l.13-.13,1.48,1.57-.13.13-.71.7Zm-1-1.51,1,1c.15-.16.31-.31.46-.46l-1-1Zm29.45,1.11-.13-.13c-.23-.23-.47-.46-.73-.68l-.13-.13,1.44-1.61.13.12c.28.25.55.5.81.76l.13.13Zm-.47-1,.47.44,1-1-.52-.49Zm-25.91-.52L17.11,13.5l.14-.12c.29-.22.59-.45.89-.66l.15-.11,1.25,1.77-.15.1-.8.6Zm-.82-1.63.88,1.12.52-.39-.83-1.16Zm25.13,1.29-.15-.11c-.26-.19-.54-.39-.82-.57l-.15-.1,1.2-1.8.16.1c.3.2.6.42.9.64l.15.11ZM42.15,14c.18.12.36.24.53.37l.85-1.14c-.19-.15-.39-.29-.59-.42Zm-21.44-.35-1.09-1.87.16-.09c.32-.18.64-.36,1-.53l.16-.09,1,1.92-.17.09-.87.48Zm-.59-1.73.72,1.23.57-.31-.66-1.27Zm20.33,1.45-.16-.08c-.29-.16-.59-.32-.89-.46l-.16-.08.94-2,.16.08q.51.24,1,.51l.16.09Zm-.72-.79c.19.1.38.19.57.3L41,11.59l-.64-.33Zm-16.56-.17-.82-2,.17-.07c.34-.14.68-.27,1-.39l.18-.07.71,2.05-.17.06-.93.35Zm-.34-1.8.54,1.32.61-.23-.48-1.35ZM38,12.17l-.18-.06c-.31-.12-.62-.23-.94-.33l-.18-.06.66-2.06.18.06q.53.16,1,.36l.17.07Zm-.83-.69.61.22.5-1.34-.68-.23Zm-11.35,0L25.25,9.4l.17-.05,1.08-.24.18,0,.43,2.12-.18,0c-.33.06-.65.14-1,.22Zm-.09-1.83L26,11.05l.63-.14-.27-1.4C26.16,9.55,25.93,9.61,25.69,9.66Zm9.63,1.7-.18,0c-.32-.07-.65-.14-1-.19l-.18,0L34.35,9l.18,0,1.08.22.18,0Zm-.91-.56.63.12.31-1.39-.7-.14ZM28.48,11l-.23-2.15.18,0q.55-.06,1.11-.09h.18l.12,2.16h-.18l-1,.08Zm.18-1.82.15,1.42.65-.06L29.37,9.1C29.13,9.11,28.89,9.13,28.66,9.16Zm3.94,1.76h-.18c-.33,0-.66-.05-1-.06h-.18l.06-2.16h.19c.36,0,.74,0,1.1.06l.18,0Zm-1-.43.64,0,.12-1.42-.72,0Z"/></g></g></svg>