<svg id="visual" viewBox="0 0 900 675" width="900" height="675" xmlns="http://www.w3.org/2000/svg" xmlns:xlink="http://www.w3.org/1999/xlink" version="1.1"><rect x="0" y="0" width="900" height="675" fill="#ffffff"></rect><defs><linearGradient id="grad1_0" x1="25%" y1="0%" x2="100%" y2="100%"><stop offset="23.333333333333336%" stop-color="#003bb3" stop-opacity="1"></stop><stop offset="76.66666666666666%" stop-color="#003bb3" stop-opacity="1"></stop></linearGradient></defs><defs><linearGradient id="grad1_1" x1="25%" y1="0%" x2="100%" y2="100%"><stop offset="23.333333333333336%" stop-color="#003bb3" stop-opacity="1"></stop><stop offset="76.66666666666666%" stop-color="#7977cd" stop-opacity="1"></stop></linearGradient></defs><defs><linearGradient id="grad1_2" x1="25%" y1="0%" x2="100%" y2="100%"><stop offset="23.333333333333336%" stop-color="#beb8e7" stop-opacity="1"></stop><stop offset="76.66666666666666%" stop-color="#7977cd" stop-opacity="1"></stop></linearGradient></defs><defs><linearGradient id="grad1_3" x1="25%" y1="0%" x2="100%" y2="100%"><stop offset="23.333333333333336%" stop-color="#beb8e7" stop-opacity="1"></stop><stop offset="76.66666666666666%" stop-color="#ffffff" stop-opacity="1"></stop></linearGradient></defs><defs><linearGradient id="grad2_0" x1="0%" y1="0%" x2="75%" y2="100%"><stop offset="23.333333333333336%" stop-color="#003bb3" stop-opacity="1"></stop><stop offset="76.66666666666666%" stop-color="#003bb3" stop-opacity="1"></stop></linearGradient></defs><defs><linearGradient id="grad2_1" x1="0%" y1="0%" x2="75%" y2="100%"><stop offset="23.333333333333336%" stop-color="#7977cd" stop-opacity="1"></stop><stop offset="76.66666666666666%" stop-color="#003bb3" stop-opacity="1"></stop></linearGradient></defs><defs><linearGradient id="grad2_2" x1="0%" y1="0%" x2="75%" y2="100%"><stop offset="23.333333333333336%" stop-color="#7977cd" stop-opacity="1"></stop><stop offset="76.66666666666666%" stop-color="#beb8e7" stop-opacity="1"></stop></linearGradient></defs><defs><linearGradient id="grad2_3" x1="0%" y1="0%" x2="75%" y2="100%"><stop offset="23.333333333333336%" stop-color="#ffffff" stop-opacity="1"></stop><stop offset="76.66666666666666%" stop-color="#beb8e7" stop-opacity="1"></stop></linearGradient></defs><g transform="translate(900, 0)"><path d="M0 196.9C-7.4 192.1 -14.8 187.4 -22.7 186.6C-30.5 185.9 -38.8 189.1 -46.4 188.4C-54.1 187.6 -61.1 182.8 -67.7 178.6C-74.4 174.3 -80.7 170.6 -88.3 168.2C-95.9 165.9 -104.7 165 -110.8 160.5C-116.8 156 -120.2 147.8 -126.7 143C-133.1 138.1 -142.8 136.6 -147.4 130.6C-151.9 124.5 -151.4 114 -153.9 106.2C-156.4 98.4 -161.8 93.3 -166.5 87.4C-171.1 81.4 -175 74.7 -178.6 67.7C-182.1 60.8 -185.4 53.6 -187.4 46.2C-189.4 38.7 -190.2 31 -191.6 23.3C-193 15.5 -194.9 7.8 -196.9 0L0 0Z" fill="#dfdbf3"></path><path d="M0 147.7C-5.6 144.1 -11.1 140.5 -17 140C-22.9 139.4 -29.1 141.8 -34.8 141.3C-40.6 140.7 -45.8 137.1 -50.8 133.9C-55.8 130.7 -60.5 127.9 -66.2 126.2C-71.9 124.4 -78.5 123.8 -83.1 120.4C-87.6 117 -90.1 110.9 -95 107.2C-99.9 103.6 -107.1 102.4 -110.5 97.9C-114 93.4 -113.6 85.5 -115.4 79.7C-117.3 73.8 -121.3 70 -124.8 65.5C-128.3 61.1 -131.3 56 -133.9 50.8C-136.6 45.6 -139 40.2 -140.5 34.6C-142.1 29.1 -142.7 23.3 -143.7 17.4C-144.7 11.6 -146.2 5.8 -147.7 0L0 0Z" fill="#9c97da"></path><path d="M0 98.4C-3.7 96.1 -7.4 93.7 -11.3 93.3C-15.3 92.9 -19.4 94.6 -23.2 94.2C-27 93.8 -30.5 91.4 -33.9 89.3C-37.2 87.2 -40.4 85.3 -44.1 84.1C-47.9 83 -52.3 82.5 -55.4 80.2C-58.4 78 -60.1 73.9 -63.3 71.5C-66.6 69.1 -71.4 68.3 -73.7 65.3C-76 62.3 -75.7 57 -76.9 53.1C-78.2 49.2 -80.9 46.7 -83.2 43.7C-85.6 40.7 -87.5 37.3 -89.3 33.9C-91.1 30.4 -92.7 26.8 -93.7 23.1C-94.7 19.4 -95.1 15.5 -95.8 11.6C-96.5 7.8 -97.5 3.9 -98.4 0L0 0Z" fill="#5058c0"></path><path d="M0 49.2C-1.9 48 -3.7 46.8 -5.7 46.7C-7.6 46.5 -9.7 47.3 -11.6 47.1C-13.5 46.9 -15.3 45.7 -16.9 44.6C-18.6 43.6 -20.2 42.6 -22.1 42.1C-24 41.5 -26.2 41.3 -27.7 40.1C-29.2 39 -30 37 -31.7 35.7C-33.3 34.5 -35.7 34.1 -36.8 32.6C-38 31.1 -37.9 28.5 -38.5 26.6C-39.1 24.6 -40.4 23.3 -41.6 21.8C-42.8 20.4 -43.8 18.7 -44.6 16.9C-45.5 15.2 -46.3 13.4 -46.8 11.5C-47.4 9.7 -47.6 7.8 -47.9 5.8C-48.2 3.9 -48.7 1.9 -49.2 0L0 0Z" fill="#003bb3"></path></g><g transform="translate(0, 675)"><path d="M0 -196.9C7.9 -195.7 15.7 -194.5 23.4 -192.6C31.1 -190.7 38.6 -188 45.5 -184.5C52.4 -181 58.7 -176.7 66.7 -175.8C74.7 -174.8 84.4 -177.2 91.5 -174.3C98.6 -171.4 103.1 -163.3 108.5 -157.2C113.9 -151.1 120.2 -147 126 -142.2C131.8 -137.4 137.1 -131.9 143 -126.7C148.9 -121.4 155.3 -116.5 158.8 -109.6C162.3 -102.8 162.8 -94.1 165.6 -86.9C168.3 -79.7 173.3 -73.9 177.7 -67.4C182 -60.8 185.6 -53.6 186.4 -45.9C187.3 -38.3 185.3 -30.4 186.6 -22.7C187.9 -14.9 192.4 -7.5 196.9 0L0 0Z" fill="#dfdbf3"></path><path d="M0 -147.7C5.9 -146.8 11.8 -145.9 17.5 -144.4C23.3 -143 28.9 -141 34.1 -138.4C39.3 -135.7 44 -132.5 50 -131.8C56 -131.1 63.3 -132.9 68.6 -130.7C74 -128.6 77.3 -122.5 81.4 -117.9C85.4 -113.3 90.1 -110.3 94.5 -106.7C98.8 -103.1 102.8 -98.9 107.2 -95C111.6 -91.1 116.5 -87.3 119.1 -82.2C121.7 -77.1 122.1 -70.6 124.2 -65.2C126.3 -59.8 130 -55.4 133.2 -50.5C136.5 -45.6 139.2 -40.2 139.8 -34.5C140.5 -28.7 139 -22.8 140 -17C140.9 -11.2 144.3 -5.6 147.7 0L0 0Z" fill="#9c97da"></path><path d="M0 -98.4C3.9 -97.8 7.9 -97.3 11.7 -96.3C15.5 -95.3 19.3 -94 22.7 -92.2C26.2 -90.5 29.3 -88.4 33.3 -87.9C37.3 -87.4 42.2 -88.6 45.7 -87.2C49.3 -85.7 51.6 -81.6 54.3 -78.6C57 -75.5 60.1 -73.5 63 -71.1C65.9 -68.7 68.5 -65.9 71.5 -63.3C74.4 -60.7 77.7 -58.2 79.4 -54.8C81.2 -51.4 81.4 -47.1 82.8 -43.5C84.2 -39.8 86.7 -37 88.8 -33.7C91 -30.4 92.8 -26.8 93.2 -23C93.6 -19.2 92.7 -15.2 93.3 -11.3C94 -7.5 96.2 -3.7 98.4 0L0 0Z" fill="#5058c0"></path><path d="M0 -49.2C2 -48.9 3.9 -48.6 5.8 -48.1C7.8 -47.7 9.6 -47 11.4 -46.1C13.1 -45.2 14.7 -44.2 16.7 -43.9C18.7 -43.7 21.1 -44.3 22.9 -43.6C24.7 -42.9 25.8 -40.8 27.1 -39.3C28.5 -37.8 30 -36.8 31.5 -35.6C32.9 -34.4 34.3 -33 35.7 -31.7C37.2 -30.4 38.8 -29.1 39.7 -27.4C40.6 -25.7 40.7 -23.5 41.4 -21.7C42.1 -19.9 43.3 -18.5 44.4 -16.8C45.5 -15.2 46.4 -13.4 46.6 -11.5C46.8 -9.6 46.3 -7.6 46.7 -5.7C47 -3.7 48.1 -1.9 49.2 0L0 0Z" fill="#003bb3"></path></g></svg>